/* XPM */
static char *_f81e33ed1d74272885e86c12cb4bd21WIFYhJY4k8gemi0i[] = {
/* columns rows colors chars-per-pixel */
"64 64 224 2 ",
"   c #060506",
".  c #090706",
"X  c #0B0807",
"o  c #070708",
"O  c #080708",
"+  c #070808",
"@  c #0C0B0B",
"#  c #120602",
"$  c #120A06",
"%  c #1B0C06",
"&  c #120E0C",
"*  c #190F0A",
"=  c #14100E",
"-  c #1B120D",
";  c #19110E",
":  c #110F10",
">  c #141312",
",  c #1A1310",
"<  c #1A1613",
"1  c #1D1511",
"2  c #1C1916",
"3  c #191718",
"4  c #1D1B19",
"5  c #23140D",
"6  c #2A160D",
"7  c #26180F",
"8  c #2B180F",
"9  c #321A0D",
"0  c #381A0C",
"q  c #221611",
"w  c #231A14",
"e  c #2C1D14",
"r  c #221E1B",
"t  c #291F18",
"y  c #331E12",
"u  c #391E11",
"i  c #2F2117",
"p  c #25211E",
"a  c #2B221C",
"s  c #332116",
"d  c #3C2315",
"f  c #33251C",
"g  c #3B261A",
"h  c #36281F",
"j  c #3B291D",
"k  c #262321",
"l  c #2A2622",
"z  c #2D2925",
"x  c #2E2B29",
"c  c #312721",
"v  c #332A23",
"b  c #3C2D23",
"n  c #322E2A",
"m  c #3A2F28",
"M  c #3F3126",
"N  c #35312D",
"B  c #3C332C",
"V  c #373431",
"C  c #3A3531",
"Z  c #3D3934",
"A  c #441F0D",
"S  c #441F11",
"D  c #46230E",
"F  c #432514",
"G  c #4A2613",
"H  c #4C2916",
"J  c #432718",
"K  c #442B1C",
"L  c #4B2C1B",
"P  c #542610",
"I  c #542A15",
"U  c #5D2E15",
"Y  c #542F1B",
"T  c #4C311F",
"R  c #53311D",
"E  c #5C331C",
"W  c #60260C",
"Q  c #652D12",
"!  c #633116",
"~  c #68361A",
"^  c #62381F",
"/  c #743C1D",
"(  c #783A18",
")  c #412E22",
"_  c #453224",
"`  c #4B3323",
"'  c #44352B",
"]  c #4A362A",
"[  c #45382F",
"{  c #4C392C",
"}  c #523522",
"|  c #5C3722",
" . c #533926",
".. c #5D3923",
"X. c #533C2C",
"o. c #5A3E2A",
"O. c #433A33",
"+. c #433B35",
"@. c #4B3C31",
"#. c #523E30",
"$. c #643B23",
"%. c #613924",
"&. c #6B3C21",
"*. c #723F21",
"=. c #79421F",
"-. c #5C412D",
";. c #4D4036",
":. c #46413B",
">. c #4B423B",
",. c #524136",
"<. c #5B4332",
"1. c #56493D",
"2. c #68442B",
"3. c #6C442B",
"4. c #744325",
"5. c #784627",
"6. c #7D4C2C",
"7. c #654A35",
"8. c #6D4D36",
"9. c #654C39",
"0. c #714F38",
"q. c #6E523E",
"w. c #795235",
"e. c #74533B",
"r. c #4C4640",
"t. c #4E4843",
"y. c #564C44",
"u. c #575049",
"i. c #5A524B",
"p. c #605146",
"a. c #61584F",
"s. c #765B47",
"d. c #625950",
"f. c #6D645A",
"g. c #853B16",
"h. c #86421D",
"j. c #96471A",
"k. c #9C4C1D",
"l. c #945816",
"z. c #A54E1A",
"x. c #AA551E",
"c. c #B5581B",
"v. c #BA631E",
"b. c #854A26",
"n. c #974D22",
"m. c #86512B",
"M. c #8C522C",
"N. c #9A562A",
"B. c #975A2C",
"V. c #9B5828",
"C. c #845534",
"Z. c #8C5A35",
"A. c #875A3A",
"S. c #995D32",
"D. c #925F39",
"F. c #A35322",
"G. c #A75B26",
"H. c #A45D2C",
"J. c #B35C21",
"K. c #B55C24",
"L. c #9B632E",
"P. c #8B613D",
"I. c #986438",
"U. c #AC612A",
"Y. c #BC6324",
"T. c #B8692C",
"R. c #A76836",
"E. c #B46D32",
"W. c #B97639",
"Q. c #C35A1C",
"!. c #C7651A",
"~. c #D06318",
"^. c #DA771E",
"/. c #E56F13",
"(. c #E7781B",
"). c #C76922",
"_. c #C46B24",
"`. c #D26E21",
"'. c #CA752A",
"]. c #D87B25",
"[. c #C47933",
"{. c #E37F22",
"}. c #835D42",
"|. c #8F6444",
" X c #966945",
".X c #A87447",
"XX c #B57843",
"oX c #B37B49",
"OX c #AF7A50",
"+X c #E3831D",
"@X c #E7881F",
"#X c #EE911C",
"$X c #F2A81E",
"%X c #D8812B",
"&X c #D78E36",
"*X c #E38926",
"=X c #E79226",
"-X c #F49E21",
";X c #E69531",
":X c #DFAA21",
">X c #F5AC29",
",X c #F1A630",
"<X c #F0B331",
"1X c #FAC72A",
"2X c #F7D92F",
"3X c #F6CE34",
"4X c #F6DA37",
"5X c #F9E830",
"6X c #BA8348",
"7X c #D39648",
"8X c #DCA246",
"9X c #E9BD40",
"0X c #DAB67F",
"qX c #F4C941",
"wX c #F8DE47",
"eX c #FAEC49",
"rX c #F8E859",
"tX c #FAF450",
"yX c #F9F466",
"uX c #FCFF7C",
"iX c #F8F789",
"pX c #FAFCAF",
"aX c #FCFECB",
"sX c #FAF8EB",
/* pixels */
"o o   O     o   o O         O             O O O O @ + @ @ @ & = & X @ @ & & X X X X X X & & & @ @ @ @ @ @ @ @ O O   + O   o O o ",
"  O O O   O O O @ @ @ O O O O O O O   O @ O @ @ & @ X @ X X & = & X @ @ & & & X X X @ & & & = = & @ & @ @ & O O @ O     O O     ",
"    O     O O O @ @ @ @ O O O O O   O O & @ & & & & & & & X & & & & & & & & & $ & & & ; & & = ; & X & & & & @ @ @ O + O O O O O ",
"          O O @ : : > : @ O O O   @ O + O @ @ @ & & & & & & & ; & & & & & & $ & & * ; * * & & & & $ & & @ & & & & @ @ @ O O O O ",
"  O   o O O @ @ @ @ O O O O O O O @ @ @ @ @ @ & & & 1 q q 1 q ; q w q q 5 q w 5 5 5 * ; & & & ; 1 , ; = = = = , = < > & & @ @ @ ",
"@ @ O O @ : > @ @ @ @ O O @ @ & @ O @ @ & & & & ; ; ; w t e f e s f s s s g e 7 e 8 5 5 ; * ; , 1 1 1 1 4 4 t , & < 4 4 > & = > ",
"@ : @ @ @ @ > @ @ @ @ O @ @ @ & & & & & & ; ; 1 w t t s f f ` K K K K K K } d u u u 7 6 5 * ; ; * * ; & = = , , , = , < > > > > ",
"O @ @ @ @ @ : @ @ @ O O O @ = & & = < = ; 1 1 q w e e g j ` o...T } ..R J E E H J H G 0 9 9 7 5 5 5 ; * , ; q 1 , = = < 2 < 2 > ",
"        +   +       O > O   O O @ @ & & & = ; q w i f )  . .o.o.o.} } $.%.E ^ E Y U ! U W u 9 6 5 5 ; ; ; * ; * ; & & = & & & @ ",
"O o O O O O O : @ @ & & = @ & & = < < w a a v h <.e.e.e.e.}.|.P.A.A.C.D.6.5.5.6./ *./ / ( E L L d s 8 5 5 w ; ; = = & & = = @ @ ",
"o o O @ @ O O > & : > @ > > 2 2 2 < < 1 i f _ h _ 0.w.3.3.C.A.C.Z.m.m.S.S.N.R.R.n.k.k.g.g.( E ^ G d 8 7 5 5 5 5 ; ; = ; 1 4 < = ",
"O   O @ @ O O > @ > > > 3 r 4 4 r r 4 t i w b { ] ` 0.|.A.C.Z.Z.oX.XZ.R.V.H.U.G.K.G.c.~.K.h./ / G F u 9 8 7 7 q ; * & & ; = < > ",
"O o O O @ O O O @ > > 3 4 r 4 r p r t t t q _ _ X.-.` 2.3.$.Z.oXXXR.R.XXW.T.[.[.'.).(.(.Q.x.n.N.! U G u 9 8 7 7 5 ; & & ; ; ; 2 ",
"              O O O @ @ @ & = 2 4 4 1 q t i ; w f s s g } R L 6.I.I.L.6XW.[.[.Y.!.@X1X#X+X^.J.k.( Q P A u 9 6 5 % * & * & & & & ",
"O O O O @ O + @ @ O O @ @ & 2 4 w t f b { <.9.7.-.7.2.2.w.P.P.3.w.I.R.B.V.U.Y._.`.^.2X>X/.*X_.z.n.h.! U H J F g s e 5 q * & @ @ ",
"        O @ @ O @ @ @ > < 1 4 r i f _ ] X.9.}.|. X XOX.X.XXXoXD.m.B.W.E.U._.`.].^.=X5X3X>X,X;X].Y.F.b./ ^ R J J g e q * & X @ @ ",
"      O @ @ @ @ & & > = = = < < 1 f _ X.X.<.0.e.}.A..X|.D.oX6X6.6.M.=.G.T.'.].{.@X<XeX2XwX3X,X%X'.J.h./ ~ $.L J d y w ; & X X @ ",
"      O O O O + + @ @ O @ & @ & < i b ' _ <.e.8.2.A. XA.A. XZ.5.6.m./ g.x._.].*XqXyX4XtXuXrX<X;X%Xc.j.g.=.~ %.| Y d 7 ; & $ X X ",
"        O O + O @ @ @ = & = 4 r m v a v v b b ` ` ` ` K J J 2.3.3.=.b.V.G.c.!.^.9XtXrXpXpXrX,X+X!.x.j.h./ ! Y L d 8 5 * & $ & O ",
"  O O O @ @ & = > > = < > 3 r a v @.,.[ ' ' b _ _ ` `  .$.3.C.6.m.R.7X7X8X&X*X,X4XiXsXsXaXyX-X@X]._.F.n.b.&.&...` d y q ; & & & ",
"O O O @ @ @ = = > & O & = < 4 w p v [ @.,.<. .] ` ` g L ` } $.| 4.S.W.W.[.%X].*X=XeXiX0XuX3X].].'.Y.F.n.b.&.%.R J 9 7 5 ; ; & $ ",
"@ @ @ & > & & > 2 @ @ @ @ & = < w a f v ] X.{  .{ ) g g L R R %.4.M.H.U.T.'.x.v.j.#X:Xl.$X^.k.x.J.Y.j.h.5.&.E J u 5 5 ; * & & X ",
"@ O @ @ @ @ O @ @ O O @ @ @ & & & > w r t w i f h h j ` T T R E $.&.m.N.U.T.k.Q A c.v.S ).g.A Q z.j.( / ! I G F y % % % $ & X X ",
"    O O O O @ @ > > O @ @ = < 4 r p w t a b #.{ ) ) f ) ` K T } | $.$.4.B.G.E.L * D R d E 0 * ~ F./ U I G A L L g K e q ; & & @ ",
"O O O @ @ = @ = 2 > > 2 r z v >.;.[ m v [ ] #.X.X.o._ g ` } } 3.3.E ^ *.M.b.N.! ; 8 y s u 8 5 ~ ( U I L L F 2...` K ) h w q 1 ; ",
"O @ @ @ O @ @ @ & & & > 3 4 v B B B @.' b @.s.q.7.7.` s K g K R R R Y ^ 5.M.b.I ; ; e w ; * % D I G F J d 7 L J y s f t w q q ; ",
"O O O O   @ @ @ = = = < r r p B B B 1.y.{ #.s.s.q.9.j s j s e y u u u J R E E d % X & t & . # % 9 9 d L d e g s e e t q q ; ; ; ",
"O O + @ @ @ @ O @ @ @ > < > > 4 p v @.@.' B B [ M f _ j b ` _ K K  . .R R J s 5 $ O ; a & O X % e ` ` K g ` g s t q ; ; , & & & ",
"@ @ @ @ @ @ = @ = = > 4 4 r r 4 l B 1.p.,.[ @.@.@.' ' b _ <. .`  .` } L J J e * $ . X &   . $ ; w K o.-.X._ ] ) f s t q q 1 ; & ",
"O @ @ @ @ @ @ @ = = < 4 4 w p 4 l B >.y.1.@.[ ' [ M h f f f _ ` `  . .g e y 5 & & . & i O + + @ & w ' <.X.] b f i t w q 1 ; & & ",
"@ O @ @ O @ @ O & = < < < 4 r < r B B ;.;.;.@.[ { p i i f i b _ ) <.` s y e 5 & $ + O & O & & = 2 p m ] ] b f t t q q 1 , & & & ",
"+ + O O O @ @ O & = > > < 4 4 = p n v B @.[ O.B a w t t i t w w w 5 5 5 e i q = @ + @ = + O @ = > > 1 t f f t w 1 & & & & & & & ",
"O O O @ @ O @ @ > > > 2 2 > < r p l p l v r z p r p r i i i v h _ _ ] ) b f w & @ O + =     O + + @ = = w 1 t i w t < ; < 1 = & ",
"@ @ & > & @ & & > 4 4 l z k k l k l l x l p p p i w r p a v a b v i f b b f t w < & O @   @ @ O @ & = , < ; q i t q w w w 1 & = ",
"> @ @ : O @ @ : > 4 4 4 k k p p r r p l p r z a i r r v v v v @.B f v f i t w < 4 & @ 2 O @ @ @ = = = = < < = t w < ; , 1 = ; 1 ",
"> > @ @ O O @ @ > > > 4 4 4 r r r p l l x l z v l r r a p p a m m c v v p v c r 2 = @ > + & & > & = > < < = & w 4 1 1 , ; 1 ; < ",
"O O O O @   + O O @ @ & & > > 2 > > r k k p p p p r 4 p w w p a w p r i i r 4 = @ @ O >   @ @ = > = & & & = < = < < = = @ X + O ",
"+ O O O @ & @ & O O @ & = = > 2 4 4 p x N N n n n v p l p p l c v m v B ' c v p 4 > @ > O & & < r r 2 < < 4 4 > > 4 r 4 > & = & ",
"  O @ @ @ @ > > @ @ > > 2 2 2 4 4 2 l l x N N B B n r p r w r w p m ' B m v p p p < @ > O = > 4 4 3 = > > < < > > 2 4 2 > = = = ",
"    O @ @ @ : > @ @ & > > > > 4 4 = l p l x n n N C r r r r r r l B B [ n v v p r > O @ O 2 2 > 4 r < > > > > < 2 < 2 2 = = & = ",
"O   O @ @ @ @ : O @ @ > > > > 3 4 > k p k l l l z n < > 2 > > < 4 r r k r r p n x 2 O > + & @ > 4 > = = = @ & & & = > > = > & > ",
"> @ O @ @ O   O : O @ > > > > > > 3 > > > > 4 4 4 4 p 3 r 4 p r z l l a p r 3 < 4 = @ > @ & & 4 2 3 > = > > > > & & & O @ O O @ ",
"@ O O O @ O @ @ @ @ @ > 2 4 4 4 4 p k r r 3 2 2 4 4 r r r l l p r p l n B O.B N l r < > 2 4 4 r 2 3 2 4 4 4 3 2 2 3 > > > @ @ @ ",
"@ @ O O O O @ @ @ > > > 2 3 3 4 4 4 4 4 4 > 3 2 4 4 4 4 4 4 > 2 4 4 4 4 r w p l p r 2 4 r 3 4 4 4 4 4 3 > > 2 > > > > @ @ @ @ @ ",
"+ O + O O @ & & : : > > > > > 4 4 4 3 4 r > 2 2 2 4 r 4 r 2 & = < 3 < 4 4 4 2 4 r 4 & = > = 3 4 r > > = > > > > & & @ O @ @ @ O ",
"  + O O O @ @ O O @ @ @ O O : > > > > > > > O O @ @ & @ = r 3 3 > = = < > > r 3 > = @ = @ > > > & > > @ > > > > @ @ @ @       O ",
"O O O O @ @ & @ @ @ @ @ = @ & @ @ = & > 4 4 4 3 2 3 3 4 p C C O.u.f.f.a.a.a.d.i.t.r.;.:.Z N l p 4 k k 2 > > > > > @ & & @ @ @ @ ",
"O O O + o O O O @ @ @ @ > @ @ @ & = = > l k l p k p p p p n :.i.i.i.i.u.y.i.d.r.>.+.Z +.N l p 3 k n 4 4 > > 4 3 > : @ @ @ @ @ @ ",
"O O O O O + O O O O @ O @ = @ & = = > = 4 N n l l l x x x C >.u.r.:.t.>.:.r.t.t.>.:.+.C n p p 4 k k 4 2 > > > > & = @ @ @ @ @ @ ",
"o + O +         + O O O @ @ > = > 2 4 p 4 l n l l k l p 3 4 p n N Z t.+.C r.:.Z Z C N N z k r 3 > > & @ O O O O O O O O O O O @ ",
"        O O @ @ @ @ @ > > > @ > > > > p r 2 4 4 4 3 > < r 3 4 p r 4 k l l l r p x k 4 4 r 4 4 r 4 = @ @ & = @ O @ @ & & > > > > ",
"O O O O @ @ @ @ @ @ @ > > > > > 2 3 3 2 4 r 3 3 3 l l x x x z x n x N C Z Z N N z l r p x z l k k k r 4 4 4 > > > > > @ @ @ O @ ",
"O + O O O O O O @ : : > > > 2 4 4 p p z n N x p 4 4 p k k k k p l z n n N n k k p r 4 r p k p 4 4 4 2 > > @ & & @ O O O O O O O ",
"O O O O @ O   O O O @ O @ @ > r 4 p l k k 4 > = & > 3 4 4 4 4 p l k l k k r p k p r r r r 4 4 4 3 2 > > @ @ @ @ O O @ O @ O O O ",
"        O O     O O O O O @ @ : > > & @ O @ > 4 r x k > = : = > 3 p 2 > 3 > > > > > > > > > > > > > > @ @ @ @ O                 ",
"O + + O O @ @ : > > > 3 2 4 2 > > > 3 r k z l l x z N r z x n n z C N N x k k 4 3 > 3 3 > > > > > > > > > > > > @ @ O O O O O O ",
"O O O O O O @ @ > > > > > 3 2 > 3 4 4 r z N p l l z z 4 N V n n z k k r 4 3 3 4 4 4 p 4 > > > & @ > > & > > > > @ O O O O   O O ",
"O O O O O O @ @ > > > > > 4 2 > 2 3 > > k k k x n N x > r 4 3 2 4 4 > > > > 2 > > 2 2 > > 2 > > @ & & @ @ @ @ @ +     O O o     ",
"O O O o O @ O O @ @ : > > > > > 4 3 4 k k 4 4 4 4 k p > = > > > > 2 > & @ > = @ @ @ @ @ @ & @ @ @ @ @ @ @ @ @ @   o             ",
"+     O O O @ @ @ @ @ @ @ @ @ @ & > > > > > > > : > > 4 > > > > > > > > > > > 3 & @ O @ @ O O O O   O O O O O O O               ",
"  O   O O O O O O O @ @ @ @ @ @ @ @ > > > > 4 4 3 4 3 2 4 4 4 4 4 4 4 2 > 4 2 > 2 2 > > > @ @ > : & @ O O O O O O O @ @ O O @ @ ",
"          o         O O   + O O @ @ @ @ & & : : > > > 2 > > > > > > : & > > @ @ & & @ & @ @ @ @ O               o + O O O O @ @ ",
"          o o       o O O O O O O @ O @ @ @ O O @ @ @ @ @ : > @ > & @ @ @ @ @ : & @ @ @ @ @ @ @ O                 o     o o   + ",
"                            o o O O   O O       O           O     O O O @ O O O O O O + O O O                                   "
};
