/* XPM */
static char *_3d8b43c12f74902b46e90009bd8e3eeXWxMMMTGrbKWHTfA[] = {
/* columns rows colors chars-per-pixel */
"64 64 129 2 ",
"   c #060506",
".  c #080707",
"X  c #090807",
"o  c #070708",
"O  c #080708",
"+  c #0C0B0B",
"@  c #100F0E",
"#  c #12100F",
"$  c #0F0F10",
"%  c #110F10",
"&  c #141312",
"*  c #191614",
"=  c #1C1916",
"-  c #191718",
";  c #1D1B19",
":  c #211B16",
">  c #221E1B",
",  c #251D19",
"<  c #261E18",
"1  c #241E1A",
"2  c #281F18",
"3  c #27201B",
"4  c #24211E",
"5  c #2B201A",
"6  c #2C211A",
"7  c #2A221C",
"8  c #2A231E",
"9  c #2C231D",
"0  c #2F241C",
"q  c #2E251E",
"w  c #31251D",
"e  c #36281F",
"r  c #252321",
"t  c #2B2622",
"y  c #2D2925",
"u  c #2E2C29",
"i  c #312821",
"p  c #342820",
"a  c #332B24",
"s  c #392B22",
"d  c #382C23",
"f  c #3B2D23",
"g  c #3D2E23",
"h  c #3A2D24",
"j  c #322E2A",
"k  c #392F28",
"l  c #3D3127",
"z  c #3E3026",
"x  c #35312D",
"c  c #3C322B",
"v  c #353331",
"b  c #3C3631",
"n  c #3D3834",
"m  c #443327",
"M  c #433328",
"N  c #42352B",
"B  c #46372B",
"V  c #48372B",
"C  c #45392E",
"Z  c #49392C",
"A  c #4D3A2D",
"S  c #4D3C2E",
"D  c #503C2E",
"F  c #403730",
"G  c #433A33",
"H  c #4B3D32",
"J  c #423E3A",
"K  c #513F31",
"L  c #4F4036",
"P  c #46423D",
"I  c #4B423B",
"U  c #544132",
"Y  c #534234",
"T  c #574537",
"R  c #5A4536",
"E  c #5C4837",
"W  c #5F4837",
"Q  c #544539",
"!  c #5A4738",
"~  c #5C4A3B",
"^  c #614633",
"/  c #634A37",
"(  c #634D3A",
")  c #624C3C",
"_  c #65503E",
"`  c #69513D",
"'  c #6B523D",
"]  c #71543E",
"[  c #4A4641",
"{  c #4E4943",
"}  c #524C45",
"|  c #584C42",
" . c #534E48",
".. c #5A5047",
"X. c #555049",
"o. c #5C554F",
"O. c #5E5851",
"+. c #604E41",
"@. c #655241",
"#. c #6B5442",
"$. c #6E5946",
"%. c #6B594A",
"&. c #715641",
"*. c #715842",
"=. c #725944",
"-. c #745944",
";. c #745A45",
":. c #795A43",
">. c #7A5D44",
",. c #755C48",
"<. c #795E48",
"1. c #645D55",
"2. c #7C614A",
"3. c #6B635B",
"4. c #746150",
"5. c #7E6752",
"6. c #736B62",
"7. c #816348",
"8. c #84664B",
"9. c #85664D",
"0. c #86694F",
"q. c #8E6B4E",
"w. c #8B6B51",
"e. c #926F53",
"r. c #8A7057",
"t. c #8F755A",
"y. c #937357",
"u. c #917459",
"i. c #9C7A5C",
/* pixels */
"  o O O O   o O O O O O O o     o           . O O + + + + # + @ @ @ + + O O + + O . . . . O O O O O O O O O O O o o o   o X o o ",
"    O O .   O O + + + + + O O O O O .   O + O + + + + + + @ O + @ @ + + O O + O O O . . + + + + + @ O O O O + + O O O         o ",
"    O O .   O O + + + + + + O O O O     O @ @ @ # # # @ @ @ + + @ + + + + + + + + O O + @ @ @ + + @ O O + O + + O O O       O O ",
"O .   O .   + + + + & & & + + O O   O + X X + + + @ @ # @ + @ @ @ # @ @ + @ @ + + + + @ @ @ @ + + + . O + O O + O + O . O   O O ",
"o o O O O O O + + + + + O O O O O O @ + + + O @ @ @ # * * = * = * & * # * & # & @ @ @ + @ + + + + @ # + @ + + + @ + + & + + O O ",
"+ + $ O O + + $ % + + + O O + + @ + + + + + + @ # # * * * < < i 9 5 7 < < 3 < = & # # # * # + + @ & & % # & & & % + @ & & @ + + ",
"+ + $ + + + + $ + + + @ O + @ + & # @ @ @ @ & * = < 5 2 5 e 0 M z f h f w w w < : = * @ @ # @ + + + + + + + + + @ % + & & & & & ",
"O O + + + + + + $ + + O O O + + # & & * * * = * : < 2 6 w g f A D V V A s w p p 5 : : = @ # # @ @ @ + + + + + + & # + @ @ & & & ",
"O         o o o o o   O & O   O + + + @ @ @ # & : < 7 w z B Z S U K Z m V B h p 0 5 : < : @ # @ @ + + + + + + + + + + O + + + + ",
"O O O O O O O O + + + & @ & & + + & * * ; 7 0 h f T ,.=.;.&.>.7.8.*.' ( ,.E Z M C z h i 7 < : & = * & # + + @ @ + + + + O O + + ",
"O O O + + + + + & % & & & & & & * * = * = 7 5 M z M / ' / ^ ' ] / ] ^ R ;.E T ( ( H M a i 7 = * : = # # @ + + + @ + + + + + & & ",
"O O O O + + O + % + & & & & ; ; ; > > = > 5 : p Z Z M / :.:.] :.' q.q.' #.E / / T H B M h 0 0 = > = + @ @ + + + & # + + + + + & ",
"o O O O O + O O O O & & - ; ; ; > r 4 > < 5 : i M B K M U R A ' w.9.>.;.2.2.( _ @.~ Z i i < : = 4 = & * # @ + + @ @ + + O O @ & ",
"                O O + + + # + # * = * * = : 0 & * 5 < < 0 h h 5 S ' ' ( 0.2.#._ Y B B N z i 3 < > * & # # @ @ + X .     O O O + ",
"o O O   O + O . O + O + @ @ # * = > > 0 a C Q ~ ) T _ ! U ) ' 2.~ ! @.$.T Y Y Z M z h z y > i t < : > * & * * * * * & @ # + . O ",
"o       O + + + + + & # & = = > 4 t t z N H ) 2.w.y.u.i.e.9.q.e.<.T ~ @.T Y H Z M p h p 9 a G c z y t t < = * * & = * @ O O O . ",
"    .   O + @ + + # # & & & & * = * t c H H Q _ ) ;.=.9.0.&.w.i._ S ! M H ! Z c M p z c p C H c a i t : = = = * & & @ @ + O   . ",
"    O X . O O O O O + + + + @ + + & = a C C H _ @.T @.<.&.&.2.2.H C H i w 0 z C H C N i 7 a p i a a 7 = = ; ; > ; * & @ + O   . ",
"    X X   + O O O + + + # & # * > j a 0 a a z c M C M z i w 6 h H M a z M M h 7 t : : = < z 7 7 7 = > = ; ; = * * & @ + + X   O ",
"O O + O + @ @ & & & * & & & ; > t j H Q G c H M z h M z z Y K ! T ~ ) r.u.t.5.H ~ Q L H N G N a 4 y a > > > = = ; = & & # + O O ",
"O O O + + @ @ & & = & + @ # * = > t a N L Q ! Y C C M i i a h Z c M ~ 2.$.) ! C H G H c p 7 7 : = t 0 < > > = = * & @ + + + O O ",
"O + + @ & & & & & = + + @ + # & * ; 4 t z N G H C C z 0 0 w p i h N H ! T Y Y 0 < t a z a < < * < t 7 4 = > = * & @ + O + O O O ",
"+ + + @ # & @ + @ & O O + + + + + + # = 7 7 : 5 5 5 t 0 w p i p a h f M N C N 0 < 7 7 = = = * & * * = = = * & # @ @ O   . . .   ",
"    . O O O + + @ & & + + @ & * = > 7 > = 7 i N N a h 0 7 z t 0 t a a a a c z c h i j y < 4 4 * < 4 * * # & # * * # * @ + + X . ",
"O O O + @ + & # & ; = * = 7 j j G I c a t z N N H H Y N 7 a p p c H a z i z k a j c a > > = = * = = * & & * & > 4 = = * = # + + ",
"+ + + + + . @ # # & & & & = = t n c j G z t z +.%.~ +.Y 3 0 7 3 i a a i a c c G c t < > < < = * = = & & & & + * * # # & & @ + + ",
"O + O + O . # + @ & & & * > > 4 c c z J | H z ~ 4.%.@.c = 7 7 : * : > : : t i a t < : = * = * & @ @ + @ & * @ & & # # & # # + + ",
"O O O O + + @ @ O + + @ & & * & = 4 a c J G j j G C t a i t N k t t a t t t 4 > > > > > = > ; ; ; > > > = * ; ; & & & + + + + O ",
"& + + + + + @ & + & & * ; > > > : t n I ..I G c F I G k t i H G a h z a t 4 < > = = = > t 4 7 t u j t y y y 4 4 r ; & & # @ @ + ",
"+ + + + + + + @ + & & * = > > < = 4 c I } } I G c c z t t 7 4 a z a c c 4 = * = = = > 4 4 > 4 4 t 4 4 t u y t r ; & & @ @ + + O ",
"+ + + + + O + @ O # & * * * = > * = x n I I H G G G a t 4 4 : 7 a t a z 4 > ; > > = > > > r t t 4 t r t y t r ; * & # + @ @ O . ",
"O O O O O + + + O @ # & * * ; = & > j j n J G n c a > = = : > * & * & & * * > > > * = = & & * * ; ; = & & * = * & & + X O . . . ",
"+ + + + & + + & + @ & * * & & * > 4 t > 4 j > r r > t > > 4 > 7 7 j j j t t t > = & * ; & & # & & + & & # @ & & * # # # @ # # @ ",
"+ % + & & & & % & & ; r t t t r r r t t t t > 4 > 4 4 > 4 7 t < 7 y > > 4 t t t t t t 4 > ; ; = & & & & # @ + + * * & & * * & + ",
"% & + + & + + & & & - ; > r t 4 > > > > t r > t t 4 > ; 4 t y t z j 4 7 4 4 > > > 4 4 > > = * & & & & & + @ @ X # & # + @ # + + ",
"% & & + @ + O & & & & * - ; ; > 4 ; > 4 r y t y a t > > > > ; > t t < 4 r r 4 t 4 4 > > ; ; * * ; & & & & # @ + # & # # # + # @ ",
"O + O O + + O O O + + & % & & & & & & ; 4 r 4 4 > 4 4 = > > ; > y > ; > > > 4 ; & # * & & & & & & & & + + + + & @ @ # + + O .   ",
"O O + + + & & & & + + + & & & & * ; = 4 y j x j y j x t r t t t t 7 j y y x j y y > > 4 r r r ; = > > * & & & & & # & = & & + + ",
". O + @ + + % & * @ @ & & = & * - = & 4 r y j j x b n 4 > > = > > > j j j j y t r t 4 ; ; 4 ; ; ; ; * & & & & & # # & & & % + + ",
"O   O + + & @ & * + + & & & & & ; ; # r r t t u j x G t > > ; ; > 4 j j j t y t t > ; & & * 4 4 - * ; & & & & # @ & & & & & + + ",
"O O . + @ + + % & O + & & & & & ; > & 4 r r t t t t j > & = * & & & > > ; ; ; ; t t ; & & @ & # @ = & @ # + + + + + + @ & # % & ",
"+ + + O @ + O O O & + + & & & * & & & & & & & = = = ; 4 ; ; ; ; > t y r r > 4 & & ; = ; * = = & & & * & # # # % @ + + + O O O O ",
"+ + O O + + + + @ % @ @ & * - ; ; ; > r > ; = * & = ; > > > 4 r 4 > 4 4 t y G n x x y y r ; t 4 ; - = & & * - * & & & & + + + + ",
"+ + + + + + + # @ # & & & & * * ; ; - > ; ; & * * = ; > ; ; ; & & = ; ; = ; ; 4 r t 4 ; ; ; - - ; - = = = & & & & & @ % O + + O ",
"O O + + O + & & & & & & & & & & = ; ; - - ; ; & * = > > ; > ; & # & * = = = = = = ; 4 & + & + & = = & & & % @ + + + + + O O O O ",
"O O O + + + + + + + + + + O + % & & & & @ & & + + + + + + + = = * * & # & & & = > # # # @ # # = & @ + + @ + & @ + + + + + O     ",
"+ + O + + + @ @ + @ & + @ & + & @ @ & & # * = ; ; * = * ; > c G G { 3.6.1.1.o.1.1.} [ J J J b t 4 = r r ; & & & & @ + + + + + + ",
"O + + O O O O O + + + + + & & % @ & & & # r t t t r t t t 4 j J o.o.o.O.o.X.} o. .P P b n x t 4 - ; u r ; & & & & & + + O + + O ",
"o O + + O O O O O + + + + @ + + & & & & & * j x j t t y j y x P  . .J [ [ J P { [ P J n x u r ; ; ; > * & & & & & + + + O O O O ",
"  o O O .   . . . O O O O + + & & & ; ; 4 ; r j t t t y y ; * 4 u x b [ { J P J n b x j x y r > ; & + + O O O   O O O O O O O O ",
"        . O + $ + + & & & & & + & & & & > 4 = = = = ; & & ; ; = 4 r ; 4 t r r > > t r 4 - ; ; = ; ; & + + + + + + + @ @ + @ @ + ",
"+ O O O O + + & & @ + & & & & & & * = = = ; 4 - ; = r y j u j t u x y x x v n x j j u r - t t r r r r > - - & & & & + + + + O O ",
"O O O O O + O O + + & & & - - & ; ; 4 r x v b j r > ; 4 t t r > r y r y j x j r r r 4 - - t r 4 ; > ; & & & + + + O O .         ",
"+ O X O O + O   + O O + + + & & > > r r r r ; & & # & = - - ; ; 4 y 4 4 > 4 4 4 4 > ; ; ; ; ; = * - & & & + + + O O O O O O O O ",
"        X O .   . O O O + + + + & & & + + O O # = > t r & # # & # & ; = & & * & & & & @ @ & & & & & & @ + + + + O               ",
"o O O O O O + + & & & & - - ; ; & * * - > r u y y u t v 4 t u j j j x v v u r r ; = = & - * & & & & & & & & & & & @ + O O O o o ",
"+ O O O + + O + + & & & & & - * & - ; ; > r v r r y u u ; u v j u y r r r ; = = ; - - ; ; & & & & + % & + @ % & & + O O O       ",
"O O + O O + + + + & & & & & * * & - ; & & r y r u x x v - ; ; = * = ; = * & & & & & & * & & & * & + + + + + + O @ O             ",
"O O O + O O + O + % % & & & & & & - - - r t ; - ; ; 4 r & @ & = & - = & & + @ @ # + + O + @ + + + + + + + + + + @               ",
"      o + + + + + + + + @ % @ # $ & & % & & & & & + & & > - & & & & & & & & & & * & + + O @ O O O O   X O O O O O O             ",
"    O O + O + + O + + + + + + + % & + & & & * - ; - ; - ; ; ; ; ; ; ; - * & - - & * * & & & % + & & @ % + O O O O O O O O O O O ",
"        o O O O O o O O O X X O + + + + # & + & & & - & & & & & & & & & & & & % @ & & + + + + + + + O                 O O O O O ",
"        O o O O   o o O O O O O O O + O + + + + + + + + + @ + & % % % + + + + % & & % + + + + + + O                             ",
"                    o o   o o o o O O . X O   O   o O         O O . O O O O O + O + + O O O O O O                               "
};
